<svg width="32" height="32" xmlns="http://www.w3.org/2000/svg" xml:space="preserve" enable-background="new 0 0 122.88 122.879" version="1.1">

 <g>
  <title>Layer 1</title>
  <g stroke="null" id="svg_1">
   <path stroke="null" id="svg_2" d="m15.94967,0.58789c4.26475,0 8.12918,1.71788 10.92667,4.48966c2.79221,2.77702 4.52275,6.61342 4.52275,10.84673c0,4.2338 -1.7308,8.06971 -4.52275,10.84673c-2.79724,2.77228 -6.66192,4.48991 -10.92667,4.48991c-4.26475,0 -8.12943,-1.71763 -10.92692,-4.48966c-2.79221,-2.77702 -4.52275,-6.61317 -4.52275,-10.84697c0,-4.2333 1.73054,-8.06971 4.52275,-10.84673c2.79774,-2.77178 6.66217,-4.48966 10.92692,-4.48966l0,0zm3.02053,9.77311c0.69151,-0.69694 1.81579,-0.70018 2.51107,-0.00649c0.69503,0.69294 0.6978,1.82023 0.00679,2.51692l-3.03386,3.05435l3.03688,3.05784c0.68598,0.69145 0.67617,1.81124 -0.02037,2.50144c-0.69705,0.69045 -1.8178,0.68845 -2.50303,-0.003l-3.01676,-3.03612l-3.02179,3.04236c-0.69151,0.69719 -1.81554,0.70018 -2.51082,0.00624c-0.69478,-0.69269 -0.69805,-1.81998 -0.00654,-2.51667l3.03336,-3.0546l-3.03713,-3.05784c-0.68548,-0.6912 -0.67617,-1.81124 0.02062,-2.50169c0.69705,-0.6902 1.8178,-0.68845 2.50303,0.00325l3.01676,3.03637l3.02179,-3.04236l0,0zm5.89597,-3.28799c-2.28149,-2.2648 -5.43379,-3.66542 -8.9165,-3.66542c-3.48297,0 -6.63526,1.40062 -8.91675,3.66567c-2.28149,2.2648 -3.69243,5.39403 -3.69243,8.85127s1.41094,6.58672 3.69243,8.85127c2.28149,2.26505 5.43379,3.66591 8.91675,3.66591c3.48271,0 6.63501,-1.40062 8.9165,-3.66591c2.28149,-2.26455 3.69243,-5.39403 3.69243,-8.85127s-1.41069,-6.58647 -3.69243,-8.85151l0,0z" fill="#FF4141"/>
  </g>
 </g>
</svg>